<svg width="240" height="132" viewBox="0 0 240 132" fill="none" xmlns="http://www.w3.org/2000/svg">
<g clip-path="url(#clip0_18_36)">
<path d="M51.1469 35.9801H35.4089V51.7181H51.1469V35.9801Z" fill="#0064FF"/>
<path d="M66.492 53.6861H55.476C54.172 53.6861 53.115 54.7432 53.115 56.0471V67.0631C53.115 68.3671 54.172 69.4241 55.476 69.4241H66.492C67.7959 69.4241 68.853 68.3671 68.853 67.0631V56.0471C68.853 54.7432 67.7959 53.6861 66.492 53.6861Z" fill="#BD2EFF"/>
<path d="M77.5081 87.1271C82.5052 87.1271 86.5561 83.0762 86.5561 78.0791C86.5561 73.0821 82.5052 69.0311 77.5081 69.0311C72.511 69.0311 68.4601 73.0821 68.4601 78.0791C68.4601 83.0762 72.511 87.1271 77.5081 87.1271Z" fill="#FF7828"/>
<path d="M84.984 0.57101H1.575C1.15728 0.57101 0.756676 0.736947 0.461307 1.03232C0.165937 1.32769 0 1.72829 0 2.14601L0 85.5461C-3.76379e-07 85.7528 0.0407598 85.9574 0.119948 86.1484C0.199136 86.3393 0.315197 86.5127 0.461488 86.6587C0.60778 86.8047 0.78143 86.9205 0.9725 86.9993C1.16357 87.0781 1.36831 87.1185 1.575 87.1181H49.575C49.7814 87.1181 49.9858 87.0774 50.1766 86.9984C50.3673 86.9194 50.5406 86.8036 50.6866 86.6577C50.8325 86.5117 50.9483 86.3384 51.0273 86.1477C51.1063 85.9569 51.147 85.7525 51.147 85.5461V72.9461C51.147 72.7396 51.1063 72.5352 51.0273 72.3445C50.9483 72.1538 50.8325 71.9805 50.6866 71.8345C50.5406 71.6885 50.3673 71.5727 50.1766 71.4937C49.9858 71.4147 49.7814 71.3741 49.575 71.3741H15.738V16.309H70.821V50.2301C70.8206 50.4367 70.861 50.6415 70.9398 50.8326C71.0186 51.0236 71.1343 51.1973 71.2803 51.3436C71.4264 51.4899 71.5998 51.6059 71.7907 51.6851C71.9816 51.7643 72.1863 51.8051 72.393 51.8051H84.993C85.1997 51.8051 85.4043 51.7643 85.5952 51.6851C85.7862 51.6059 85.9596 51.4899 86.1056 51.3436C86.2516 51.1973 86.3673 51.0236 86.4462 50.8326C86.525 50.6415 86.5654 50.4367 86.565 50.2301V2.14601C86.5654 1.93856 86.5247 1.73308 86.4453 1.54142C86.3659 1.34976 86.2494 1.17571 86.1024 1.0293C85.9555 0.882891 85.781 0.767018 85.589 0.688361C85.397 0.609705 85.1914 0.569822 84.984 0.57101ZM175.5 35.995H162.873C162.666 35.9946 162.462 36.035 162.27 36.1138C162.079 36.1927 161.906 36.3084 161.759 36.4544C161.613 36.6004 161.497 36.7738 161.418 36.9648C161.339 37.1557 161.298 37.3604 161.298 37.567V85.5671C161.298 85.9848 161.464 86.3854 161.759 86.6808C162.055 86.9762 162.455 87.1421 162.873 87.1421H175.5C175.918 87.1421 176.318 86.9762 176.614 86.6808C176.909 86.3854 177.075 85.9848 177.075 85.5671V37.567C177.075 37.3604 177.034 37.1557 176.955 36.9648C176.876 36.7738 176.76 36.6004 176.613 36.4544C176.467 36.3084 176.294 36.1927 176.102 36.1138C175.911 36.035 175.707 35.9946 175.5 35.995ZM175.5 8.42802H162.873C162.456 8.42802 162.056 8.59354 161.76 8.88826C161.465 9.18298 161.299 9.58282 161.298 10V22.618C161.299 23.0352 161.465 23.4351 161.76 23.7298C162.056 24.0245 162.456 24.19 162.873 24.19H175.5C175.917 24.19 176.317 24.0245 176.613 23.7298C176.908 23.4351 177.074 23.0352 177.075 22.618V10C177.074 9.58282 176.908 9.18298 176.613 8.88826C176.317 8.59354 175.917 8.42802 175.5 8.42802ZM147.981 35.995H135.351C134.934 35.995 134.534 36.1607 134.239 36.4555C133.945 36.7503 133.779 37.1501 133.779 37.567V71.3711H114.09V37.555C114.09 37.1378 113.924 36.7377 113.63 36.4424C113.335 36.1471 112.935 35.9808 112.518 35.98H99.9C99.6933 35.98 99.4886 36.0208 99.2977 36.1C99.1068 36.1792 98.9333 36.2952 98.7873 36.4415C98.6413 36.5878 98.5256 36.7615 98.4468 36.9525C98.368 37.1436 98.3276 37.3484 98.328 37.555L98.391 85.5551C98.3926 85.972 98.5591 86.3714 98.8542 86.666C99.1493 86.9605 99.549 87.1263 99.966 87.1271H147.966C148.383 87.1263 148.783 86.96 149.078 86.6647C149.372 86.3694 149.538 85.9693 149.538 85.5521V37.552C149.534 37.1382 149.367 36.7427 149.073 36.4512C148.78 36.1597 148.383 35.9958 147.969 35.995H147.981ZM240 37.555C240 37.1373 239.834 36.7367 239.539 36.4413C239.243 36.146 238.843 35.98 238.425 35.98H225.825C225.407 35.98 225.007 36.146 224.711 36.4413C224.416 36.7367 224.25 37.1373 224.25 37.555V47.7851L214.413 54.3431L204.6 47.7851V37.555C204.6 37.1373 204.434 36.7367 204.139 36.4413C203.843 36.146 203.443 35.98 203.025 35.98H190.425C190.008 35.9808 189.608 36.1471 189.313 36.4424C189.018 36.7377 188.853 37.1378 188.853 37.555V51.7181L203.607 61.5551L188.853 71.3921V85.5551C188.853 85.7615 188.894 85.9659 188.973 86.1567C189.052 86.3474 189.167 86.5207 189.313 86.6667C189.459 86.8126 189.633 86.9284 189.823 87.0074C190.014 87.0864 190.219 87.1271 190.425 87.1271H203.025C203.232 87.1275 203.436 87.0871 203.627 87.0083C203.819 86.9295 203.992 86.8137 204.138 86.6677C204.285 86.5217 204.401 86.3483 204.48 86.1574C204.559 85.9664 204.6 85.7618 204.6 85.5551V75.2201L214.377 68.7311L224.277 75.3311V85.5611C224.277 85.7678 224.318 85.9724 224.397 86.1634C224.476 86.3543 224.592 86.5277 224.738 86.6737C224.885 86.8197 225.058 86.9355 225.249 87.0143C225.441 87.0931 225.645 87.1335 225.852 87.1331H238.452C238.659 87.1335 238.863 87.0931 239.054 87.0143C239.245 86.9355 239.419 86.8197 239.565 86.6737C239.712 86.5277 239.828 86.3543 239.907 86.1634C239.986 85.9724 240.027 85.7678 240.027 85.5611V71.3921L225.24 61.5341L240 51.7181V37.555Z" fill="white"/>
</g>
<path d="M0 115.142H153" stroke="#63FFB1" stroke-width="4"/>
<path d="M144.485 123.627L152.971 115.142L144.485 106.657" stroke="#63FFB1" stroke-width="4" stroke-linecap="round" stroke-linejoin="round"/>
<path d="M171.494 127.142H163.608V103.869H171.653C173.964 103.869 175.949 104.335 177.608 105.267C179.275 106.191 180.555 107.521 181.449 109.256C182.343 110.991 182.79 113.066 182.79 115.483C182.79 117.907 182.339 119.991 181.438 121.733C180.544 123.475 179.252 124.813 177.562 125.744C175.881 126.676 173.858 127.142 171.494 127.142ZM167.824 123.494H171.29C172.911 123.494 174.263 123.199 175.347 122.608C176.43 122.01 177.244 121.119 177.79 119.938C178.335 118.748 178.608 117.263 178.608 115.483C178.608 113.703 178.335 112.225 177.79 111.051C177.244 109.869 176.438 108.987 175.369 108.404C174.309 107.813 172.991 107.517 171.415 107.517H167.824V123.494ZM194.227 127.483C192.523 127.483 191.045 127.108 189.795 126.358C188.545 125.608 187.576 124.559 186.886 123.21C186.205 121.862 185.864 120.286 185.864 118.483C185.864 116.68 186.205 115.1 186.886 113.744C187.576 112.388 188.545 111.335 189.795 110.585C191.045 109.835 192.523 109.46 194.227 109.46C195.932 109.46 197.409 109.835 198.659 110.585C199.909 111.335 200.875 112.388 201.557 113.744C202.246 115.1 202.591 116.68 202.591 118.483C202.591 120.286 202.246 121.862 201.557 123.21C200.875 124.559 199.909 125.608 198.659 126.358C197.409 127.108 195.932 127.483 194.227 127.483ZM194.25 124.188C195.174 124.188 195.947 123.934 196.568 123.426C197.189 122.911 197.652 122.222 197.955 121.358C198.265 120.494 198.42 119.532 198.42 118.472C198.42 117.404 198.265 116.438 197.955 115.574C197.652 114.703 197.189 114.01 196.568 113.494C195.947 112.979 195.174 112.722 194.25 112.722C193.303 112.722 192.515 112.979 191.886 113.494C191.265 114.01 190.799 114.703 190.489 115.574C190.186 116.438 190.034 117.404 190.034 118.472C190.034 119.532 190.186 120.494 190.489 121.358C190.799 122.222 191.265 122.911 191.886 123.426C192.515 123.934 193.303 124.188 194.25 124.188ZM213.696 127.483C211.954 127.483 210.457 127.1 209.207 126.335C207.965 125.57 207.007 124.513 206.332 123.165C205.666 121.809 205.332 120.248 205.332 118.483C205.332 116.71 205.673 115.146 206.355 113.79C207.037 112.426 207.999 111.366 209.241 110.608C210.491 109.843 211.969 109.46 213.673 109.46C215.09 109.46 216.344 109.722 217.435 110.244C218.533 110.76 219.408 111.491 220.06 112.438C220.711 113.377 221.082 114.475 221.173 115.733H217.241C217.082 114.892 216.704 114.191 216.105 113.631C215.514 113.063 214.723 112.779 213.73 112.779C212.889 112.779 212.151 113.006 211.514 113.46C210.878 113.907 210.382 114.551 210.026 115.392C209.677 116.233 209.503 117.241 209.503 118.415C209.503 119.604 209.677 120.627 210.026 121.483C210.374 122.332 210.863 122.987 211.491 123.449C212.128 123.904 212.874 124.131 213.73 124.131C214.336 124.131 214.878 124.017 215.355 123.79C215.84 123.555 216.245 123.218 216.571 122.779C216.897 122.339 217.12 121.805 217.241 121.176H221.173C221.075 122.411 220.711 123.506 220.082 124.46C219.454 125.407 218.598 126.15 217.514 126.688C216.431 127.218 215.158 127.483 213.696 127.483ZM238.347 114.301L234.597 114.71C234.491 114.332 234.305 113.975 234.04 113.642C233.782 113.309 233.434 113.04 232.994 112.835C232.555 112.631 232.017 112.529 231.381 112.529C230.525 112.529 229.805 112.714 229.222 113.085C228.646 113.457 228.362 113.938 228.369 114.529C228.362 115.036 228.547 115.449 228.926 115.767C229.313 116.085 229.949 116.347 230.835 116.551L233.812 117.188C235.464 117.544 236.691 118.108 237.494 118.881C238.305 119.654 238.714 120.665 238.722 121.915C238.714 123.013 238.392 123.983 237.756 124.824C237.127 125.657 236.252 126.309 235.131 126.779C234.009 127.248 232.722 127.483 231.267 127.483C229.131 127.483 227.411 127.036 226.108 126.142C224.805 125.241 224.028 123.987 223.778 122.381L227.79 121.994C227.972 122.782 228.358 123.377 228.949 123.779C229.54 124.18 230.309 124.381 231.256 124.381C232.233 124.381 233.017 124.18 233.608 123.779C234.206 123.377 234.506 122.881 234.506 122.29C234.506 121.79 234.313 121.377 233.926 121.051C233.547 120.725 232.956 120.475 232.153 120.301L229.176 119.676C227.502 119.328 226.263 118.741 225.46 117.915C224.657 117.082 224.259 116.029 224.267 114.756C224.259 113.68 224.551 112.748 225.142 111.96C225.741 111.165 226.57 110.551 227.631 110.119C228.699 109.68 229.93 109.46 231.324 109.46C233.369 109.46 234.979 109.896 236.153 110.767C237.335 111.638 238.066 112.816 238.347 114.301Z" fill="white" fill-opacity="0.7"/>
<defs>
<clipPath id="clip0_18_36">
<rect width="240" height="86.5711" fill="white" transform="translate(0 0.571075)"/>
</clipPath>
</defs>
</svg>
