<svg width="199" height="41" viewBox="0 0 199 41" fill="none" xmlns="http://www.w3.org/2000/svg">
<g clip-path="url(#clip0_362_597)">
<path d="M23.6323 16.3606H16.3606V23.6323H23.6323V16.3606Z" fill="#0064FF"/>
<path d="M30.7226 24.5417H25.6326C25.0302 24.5417 24.5417 25.0302 24.5417 25.6326V30.7226C24.5417 31.3251 25.0302 31.8135 25.6326 31.8135H30.7226C31.325 31.8135 31.8135 31.3251 31.8135 30.7226V25.6326C31.8135 25.0302 31.325 24.5417 30.7226 24.5417Z" fill="#BD2EFF"/>
<path d="M35.8124 39.9931C38.1213 39.9931 39.9931 38.1213 39.9931 35.8125C39.9931 33.5036 38.1213 31.6318 35.8124 31.6318C33.5036 31.6318 31.6318 33.5036 31.6318 35.8125C31.6318 38.1213 33.5036 39.9931 35.8124 39.9931Z" fill="#FF7828"/>
<path d="M39.2667 1.19128e-05H0.727726C0.534721 1.19128e-05 0.349621 0.0766829 0.213146 0.213158C0.0766709 0.349633 0 0.534733 0 0.727738L0 39.2626C-1.73905e-07 39.3581 0.018833 39.4527 0.0554216 39.5409C0.0920102 39.6291 0.145636 39.7092 0.21323 39.7767C0.280823 39.8441 0.361058 39.8976 0.449342 39.934C0.537625 39.9705 0.632225 39.9891 0.727726 39.9889H22.906C23.0014 39.9889 23.0959 39.9701 23.184 39.9336C23.2721 39.8971 23.3522 39.8436 23.4196 39.7762C23.4871 39.7087 23.5406 39.6287 23.5771 39.5405C23.6136 39.4524 23.6324 39.358 23.6324 39.2626V33.4408C23.6324 33.3454 23.6136 33.2509 23.5771 33.1628C23.5406 33.0747 23.4871 32.9946 23.4196 32.9272C23.3522 32.8597 23.2721 32.8062 23.184 32.7697C23.0959 32.7332 23.0014 32.7144 22.906 32.7144H7.27171V7.27173H32.7227V22.9449C32.7225 23.0404 32.7412 23.135 32.7776 23.2233C32.814 23.3115 32.8675 23.3918 32.9349 23.4594C33.0024 23.527 33.0825 23.5806 33.1708 23.6172C33.259 23.6538 33.3535 23.6726 33.449 23.6726H39.2708C39.3663 23.6726 39.4609 23.6538 39.5491 23.6172C39.6373 23.5806 39.7175 23.527 39.7849 23.4594C39.8524 23.3918 39.9059 23.3115 39.9423 23.2233C39.9787 23.135 39.9974 23.0404 39.9972 22.9449V0.727738C39.9974 0.631887 39.9786 0.536946 39.9419 0.44839C39.9052 0.359834 39.8514 0.279413 39.7835 0.211765C39.7156 0.144116 39.6349 0.0905771 39.5462 0.0542341C39.4575 0.0178911 39.3625 -0.000537036 39.2667 1.19128e-05ZM81.0894 16.3676H75.2551C75.1596 16.3674 75.065 16.3861 74.9768 16.4225C74.8885 16.4589 74.8082 16.5124 74.7406 16.5799C74.673 16.6473 74.6194 16.7275 74.5828 16.8157C74.5462 16.9039 74.5274 16.9985 74.5274 17.094V39.2723C74.5274 39.4653 74.6041 39.6504 74.7406 39.7869C74.877 39.9233 75.0621 40 75.2551 40H81.0894C81.2824 40 81.4675 39.9233 81.604 39.7869C81.7405 39.6504 81.8171 39.4653 81.8171 39.2723V17.094C81.8171 16.9985 81.7983 16.9039 81.7617 16.8157C81.7251 16.7275 81.6715 16.6473 81.6039 16.5799C81.5363 16.5124 81.4561 16.4589 81.3678 16.4225C81.2795 16.3861 81.1849 16.3674 81.0894 16.3676ZM81.0894 3.63033H75.2551C75.0624 3.63033 74.8775 3.70681 74.7411 3.84298C74.6046 3.97916 74.5278 4.1639 74.5274 4.35667V10.1868C74.5278 10.3796 74.6046 10.5643 74.7411 10.7005C74.8775 10.8367 75.0624 10.9131 75.2551 10.9131H81.0894C81.2822 10.9131 81.4671 10.8367 81.6035 10.7005C81.7399 10.5643 81.8168 10.3796 81.8171 10.1868V4.35667C81.8168 4.1639 81.7399 3.97916 81.6035 3.84298C81.4671 3.70681 81.2822 3.63033 81.0894 3.63033ZM68.3743 16.3676H62.5387C62.346 16.3676 62.1613 16.4441 62.0251 16.5804C61.8888 16.7166 61.8123 16.9013 61.8123 17.094V32.7131H52.715V17.0884C52.7151 16.8957 52.6386 16.7108 52.5024 16.5743C52.3662 16.4379 52.1815 16.3611 51.9887 16.3607H46.1586C46.0631 16.3607 45.9685 16.3795 45.8803 16.4161C45.7921 16.4527 45.712 16.5063 45.6445 16.5739C45.577 16.6415 45.5236 16.7217 45.4871 16.81C45.4507 16.8983 45.4321 16.9929 45.4323 17.0884L45.4614 39.2667C45.4621 39.4594 45.539 39.6439 45.6754 39.78C45.8118 39.9161 45.9964 39.9927 46.1891 39.9931H68.3674C68.5602 39.9927 68.7449 39.9159 68.8811 39.7795C69.0172 39.643 69.0937 39.4581 69.0937 39.2654V17.087C69.0919 16.8958 69.0148 16.7131 68.879 16.5784C68.7433 16.4437 68.56 16.368 68.3688 16.3676H68.3743ZM110.892 17.0884C110.892 16.8954 110.815 16.7103 110.678 16.5738C110.542 16.4374 110.357 16.3607 110.164 16.3607H104.342C104.149 16.3607 103.964 16.4374 103.827 16.5738C103.691 16.7103 103.614 16.8954 103.614 17.0884V21.8152L99.0691 24.8453L94.535 21.8152V17.0884C94.535 16.8954 94.4583 16.7103 94.3219 16.5738C94.1854 16.4374 94.0003 16.3607 93.8073 16.3607H87.9855C87.7927 16.3611 87.608 16.4379 87.4718 16.5743C87.3356 16.7108 87.2591 16.8957 87.2591 17.0884V23.6324L94.0762 28.1776L87.2591 32.7228V39.2667C87.2591 39.3621 87.2779 39.4566 87.3144 39.5447C87.3509 39.6328 87.4044 39.7129 87.4719 39.7803C87.5393 39.8478 87.6194 39.9013 87.7075 39.9378C87.7957 39.9743 87.8901 39.9931 87.9855 39.9931H93.8073C93.9028 39.9933 93.9974 39.9746 94.0857 39.9382C94.174 39.9018 94.2542 39.8483 94.3218 39.7808C94.3894 39.7134 94.443 39.6332 94.4796 39.545C94.5162 39.4568 94.535 39.3622 94.535 39.2667V34.4915L99.0525 31.4932L103.627 34.5428V39.2695C103.627 39.365 103.646 39.4596 103.682 39.5478C103.719 39.636 103.772 39.7161 103.84 39.7836C103.908 39.8511 103.988 39.9046 104.076 39.941C104.164 39.9774 104.259 39.996 104.354 39.9959H110.176C110.272 39.996 110.366 39.9774 110.455 39.941C110.543 39.9046 110.623 39.8511 110.691 39.7836C110.758 39.7161 110.812 39.636 110.849 39.5478C110.885 39.4596 110.904 39.365 110.904 39.2695V32.7228L104.072 28.1679L110.892 23.6324V17.0884Z" fill="white"/>
</g>
<path d="M131.015 39.9536H123V16.3H131.177C133.526 16.3 135.543 16.7736 137.229 17.7206C138.923 18.66 140.224 20.0113 141.133 21.7745C142.041 23.5378 142.496 25.6475 142.496 28.1037C142.496 30.5676 142.038 32.685 141.121 34.456C140.213 36.2269 138.9 37.5859 137.183 38.533C135.474 39.48 133.418 39.9536 131.015 39.9536ZM127.285 36.2461H130.808C132.455 36.2461 133.83 35.9459 134.931 35.3453C136.032 34.737 136.859 33.8323 137.414 32.6311C137.968 31.4223 138.245 29.9131 138.245 28.1037C138.245 26.2943 137.968 24.7928 137.414 23.5994C136.859 22.3982 136.039 21.5012 134.954 20.9083C133.876 20.3077 132.536 20.0075 130.935 20.0075H127.285V36.2461Z" fill="white" fill-opacity="0.5"/>
<path d="M154.12 40.3C152.388 40.3 150.886 39.9189 149.616 39.1566C148.346 38.3944 147.36 37.328 146.659 35.9574C145.966 34.5869 145.62 32.9853 145.62 31.1528C145.62 29.3203 145.966 27.7149 146.659 26.3366C147.36 24.9584 148.346 23.8881 149.616 23.1258C150.886 22.3636 152.388 21.9824 154.12 21.9824C155.853 21.9824 157.354 22.3636 158.625 23.1258C159.895 23.8881 160.877 24.9584 161.57 26.3366C162.27 27.7149 162.621 29.3203 162.621 31.1528C162.621 32.9853 162.27 34.5869 161.57 35.9574C160.877 37.328 159.895 38.3944 158.625 39.1566C157.354 39.9189 155.853 40.3 154.12 40.3ZM154.143 36.9507C155.083 36.9507 155.868 36.6927 156.5 36.1769C157.131 35.6533 157.601 34.9526 157.909 34.0748C158.224 33.1971 158.382 32.2192 158.382 31.1412C158.382 30.0556 158.224 29.0739 157.909 28.1961C157.601 27.3106 157.131 26.6061 156.5 26.0825C155.868 25.559 155.083 25.2972 154.143 25.2972C153.181 25.2972 152.38 25.559 151.741 26.0825C151.11 26.6061 150.636 27.3106 150.32 28.1961C150.013 29.0739 149.859 30.0556 149.859 31.1412C149.859 32.2192 150.013 33.1971 150.32 34.0748C150.636 34.9526 151.11 35.6533 151.741 36.1769C152.38 36.6927 153.181 36.9507 154.143 36.9507Z" fill="white" fill-opacity="0.5"/>
<path d="M173.908 40.3C172.137 40.3 170.616 39.9112 169.346 39.1335C168.083 38.3559 167.109 37.2818 166.423 35.9112C165.746 34.533 165.407 32.9468 165.407 31.1528C165.407 29.3511 165.754 27.7611 166.447 26.3828C167.14 24.9969 168.117 23.9189 169.38 23.1489C170.651 22.3713 172.152 21.9824 173.884 21.9824C175.324 21.9824 176.599 22.2481 177.707 22.7794C178.824 23.3029 179.713 24.046 180.375 25.0084C181.038 25.9632 181.415 27.0796 181.507 28.3578H177.511C177.349 27.5031 176.964 26.7909 176.356 26.2211C175.756 25.6436 174.951 25.3549 173.942 25.3549C173.088 25.3549 172.337 25.5859 171.69 26.0479C171.043 26.5022 170.539 27.1566 170.177 28.0113C169.823 28.866 169.646 29.89 169.646 31.0835C169.646 32.2923 169.823 33.3318 170.177 34.2019C170.531 35.0642 171.028 35.7303 171.667 36.2C172.314 36.6619 173.072 36.8929 173.942 36.8929C174.558 36.8929 175.109 36.7774 175.594 36.5464C176.087 36.3077 176.499 35.9651 176.83 35.5185C177.161 35.0719 177.388 34.5291 177.511 33.89H181.507C181.407 35.1451 181.038 36.2577 180.398 37.2279C179.759 38.1903 178.889 38.9449 177.788 39.4916C176.687 40.0306 175.394 40.3 173.908 40.3Z" fill="white" fill-opacity="0.5"/>
<path d="M198.311 26.9026L194.5 27.3183C194.392 26.9333 194.203 26.5715 193.934 26.2327C193.672 25.8939 193.318 25.6205 192.871 25.4127C192.425 25.2048 191.878 25.1008 191.231 25.1008C190.361 25.1008 189.63 25.2895 189.037 25.6667C188.452 26.044 188.163 26.533 188.171 27.1335C188.163 27.6494 188.351 28.0691 188.736 28.3924C189.129 28.7158 189.776 28.9815 190.677 29.1894L193.703 29.8361C195.381 30.198 196.629 30.7717 197.445 31.557C198.269 32.3424 198.684 33.3703 198.692 34.6408C198.684 35.7572 198.357 36.7428 197.71 37.5974C197.071 38.4444 196.182 39.1066 195.042 39.584C193.903 40.0614 192.594 40.3 191.116 40.3C188.944 40.3 187.196 39.8458 185.872 38.9372C184.548 38.0209 183.759 36.7466 183.504 35.1143L187.581 34.7216C187.766 35.5224 188.159 36.1268 188.76 36.5349C189.36 36.943 190.142 37.147 191.104 37.147C192.097 37.147 192.894 36.943 193.495 36.5349C194.103 36.1268 194.407 35.6225 194.407 35.0219C194.407 34.5137 194.211 34.0941 193.818 33.763C193.433 33.4319 192.833 33.1778 192.017 33.0007L188.991 32.3655C187.289 32.0113 186.03 31.4146 185.214 30.5753C184.398 29.7283 183.993 28.6581 184.001 27.3645C183.993 26.2712 184.29 25.3241 184.89 24.5233C185.499 23.7149 186.342 23.0912 187.42 22.6523C188.505 22.2057 189.757 21.9824 191.173 21.9824C193.252 21.9824 194.889 22.4252 196.082 23.3106C197.283 24.1961 198.026 25.3934 198.311 26.9026Z" fill="white" fill-opacity="0.5"/>
<defs>
<clipPath id="clip0_362_597">
<rect width="110.892" height="40" fill="white"/>
</clipPath>
</defs>
</svg>
