<svg width="193" height="41" viewBox="0 0 193 41" fill="none" xmlns="http://www.w3.org/2000/svg">
<g clip-path="url(#clip0_290_559)">
<path d="M23.6323 16.3606H16.3606V23.6323H23.6323V16.3606Z" fill="#0064FF"/>
<path d="M30.7226 24.5417H25.6326C25.0302 24.5417 24.5417 25.0302 24.5417 25.6326V30.7226C24.5417 31.3251 25.0302 31.8135 25.6326 31.8135H30.7226C31.325 31.8135 31.8135 31.3251 31.8135 30.7226V25.6326C31.8135 25.0302 31.325 24.5417 30.7226 24.5417Z" fill="#BD2EFF"/>
<path d="M35.8124 39.9931C38.1213 39.9931 39.9931 38.1213 39.9931 35.8125C39.9931 33.5036 38.1213 31.6318 35.8124 31.6318C33.5036 31.6318 31.6318 33.5036 31.6318 35.8125C31.6318 38.1213 33.5036 39.9931 35.8124 39.9931Z" fill="#FF7828"/>
<path d="M39.2667 1.19128e-05H0.727726C0.534721 1.19128e-05 0.349621 0.0766829 0.213146 0.213158C0.0766709 0.349633 0 0.534733 0 0.727738L0 39.2626C-1.73905e-07 39.3581 0.018833 39.4527 0.0554216 39.5409C0.0920102 39.6291 0.145636 39.7092 0.21323 39.7767C0.280823 39.8441 0.361058 39.8976 0.449342 39.934C0.537625 39.9705 0.632225 39.9891 0.727726 39.9889H22.906C23.0014 39.9889 23.0959 39.9701 23.184 39.9336C23.2721 39.8971 23.3522 39.8436 23.4196 39.7762C23.4871 39.7087 23.5406 39.6287 23.5771 39.5405C23.6136 39.4524 23.6324 39.358 23.6324 39.2626V33.4408C23.6324 33.3454 23.6136 33.2509 23.5771 33.1628C23.5406 33.0747 23.4871 32.9946 23.4196 32.9272C23.3522 32.8597 23.2721 32.8062 23.184 32.7697C23.0959 32.7332 23.0014 32.7144 22.906 32.7144H7.27171V7.27173H32.7227V22.9449C32.7225 23.0404 32.7412 23.135 32.7776 23.2233C32.814 23.3115 32.8675 23.3918 32.9349 23.4594C33.0024 23.527 33.0825 23.5806 33.1708 23.6172C33.259 23.6538 33.3535 23.6726 33.449 23.6726H39.2708C39.3663 23.6726 39.4609 23.6538 39.5491 23.6172C39.6373 23.5806 39.7175 23.527 39.7849 23.4594C39.8524 23.3918 39.9059 23.3115 39.9423 23.2233C39.9787 23.135 39.9974 23.0404 39.9972 22.9449V0.727738C39.9974 0.631887 39.9786 0.536946 39.9419 0.44839C39.9052 0.359834 39.8514 0.279413 39.7835 0.211765C39.7156 0.144116 39.6349 0.0905771 39.5462 0.0542341C39.4575 0.0178911 39.3625 -0.000537036 39.2667 1.19128e-05ZM81.0894 16.3676H75.2551C75.1596 16.3674 75.065 16.3861 74.9768 16.4225C74.8885 16.4589 74.8082 16.5124 74.7406 16.5799C74.673 16.6473 74.6194 16.7275 74.5828 16.8157C74.5462 16.9039 74.5274 16.9985 74.5274 17.094V39.2723C74.5274 39.4653 74.6041 39.6504 74.7406 39.7869C74.877 39.9233 75.0621 40 75.2551 40H81.0894C81.2824 40 81.4675 39.9233 81.604 39.7869C81.7405 39.6504 81.8171 39.4653 81.8171 39.2723V17.094C81.8171 16.9985 81.7983 16.9039 81.7617 16.8157C81.7251 16.7275 81.6715 16.6473 81.6039 16.5799C81.5363 16.5124 81.4561 16.4589 81.3678 16.4225C81.2795 16.3861 81.1849 16.3674 81.0894 16.3676ZM81.0894 3.63033H75.2551C75.0624 3.63033 74.8775 3.70681 74.7411 3.84298C74.6046 3.97916 74.5278 4.1639 74.5274 4.35667V10.1868C74.5278 10.3796 74.6046 10.5643 74.7411 10.7005C74.8775 10.8367 75.0624 10.9131 75.2551 10.9131H81.0894C81.2822 10.9131 81.4671 10.8367 81.6035 10.7005C81.7399 10.5643 81.8168 10.3796 81.8171 10.1868V4.35667C81.8168 4.1639 81.7399 3.97916 81.6035 3.84298C81.4671 3.70681 81.2822 3.63033 81.0894 3.63033ZM68.3743 16.3676H62.5387C62.346 16.3676 62.1613 16.4441 62.0251 16.5804C61.8888 16.7166 61.8123 16.9013 61.8123 17.094V32.7131H52.715V17.0884C52.7151 16.8957 52.6386 16.7108 52.5024 16.5743C52.3662 16.4379 52.1815 16.3611 51.9887 16.3607H46.1586C46.0631 16.3607 45.9685 16.3795 45.8803 16.4161C45.7921 16.4527 45.712 16.5063 45.6445 16.5739C45.577 16.6415 45.5236 16.7217 45.4871 16.81C45.4507 16.8983 45.4321 16.9929 45.4323 17.0884L45.4614 39.2667C45.4621 39.4594 45.539 39.6439 45.6754 39.78C45.8118 39.9161 45.9964 39.9927 46.1891 39.9931H68.3674C68.5602 39.9927 68.7449 39.9159 68.8811 39.7795C69.0172 39.643 69.0937 39.4581 69.0937 39.2654V17.087C69.0919 16.8958 69.0148 16.7131 68.879 16.5784C68.7433 16.4437 68.56 16.368 68.3688 16.3676H68.3743ZM110.892 17.0884C110.892 16.8954 110.815 16.7103 110.678 16.5738C110.542 16.4374 110.357 16.3607 110.164 16.3607H104.342C104.149 16.3607 103.964 16.4374 103.827 16.5738C103.691 16.7103 103.614 16.8954 103.614 17.0884V21.8152L99.0691 24.8453L94.535 21.8152V17.0884C94.535 16.8954 94.4583 16.7103 94.3219 16.5738C94.1854 16.4374 94.0003 16.3607 93.8073 16.3607H87.9855C87.7927 16.3611 87.608 16.4379 87.4718 16.5743C87.3356 16.7108 87.2591 16.8957 87.2591 17.0884V23.6324L94.0762 28.1776L87.2591 32.7228V39.2667C87.2591 39.3621 87.2779 39.4566 87.3144 39.5447C87.3509 39.6328 87.4044 39.7129 87.4719 39.7803C87.5393 39.8478 87.6194 39.9013 87.7075 39.9378C87.7957 39.9743 87.8901 39.9931 87.9855 39.9931H93.8073C93.9028 39.9933 93.9974 39.9746 94.0857 39.9382C94.174 39.9018 94.2542 39.8483 94.3218 39.7808C94.3894 39.7134 94.443 39.6332 94.4796 39.545C94.5162 39.4568 94.535 39.3622 94.535 39.2667V34.4915L99.0525 31.4932L103.627 34.5428V39.2695C103.627 39.365 103.646 39.4596 103.682 39.5478C103.719 39.636 103.772 39.7161 103.84 39.7836C103.908 39.8511 103.988 39.9046 104.076 39.941C104.164 39.9774 104.259 39.996 104.354 39.9959H110.176C110.272 39.996 110.366 39.9774 110.455 39.941C110.543 39.9046 110.623 39.8511 110.691 39.7836C110.758 39.7161 110.812 39.636 110.849 39.5478C110.885 39.4596 110.904 39.365 110.904 39.2695V32.7228L104.072 28.1679L110.892 23.6324V17.0884Z" fill="white"/>
</g>
<path d="M130.426 39.9987C137.632 39.9987 142.488 35.4556 142.488 28.218C142.488 21.0117 137.632 16.5 130.426 16.5H122.624V39.9987H130.426ZM130.426 36.9595H126.07V19.5078H130.426C135.627 19.5078 138.948 22.735 138.948 28.218C138.948 33.6697 135.627 36.9595 130.426 36.9595Z" fill="white" fill-opacity="0.5"/>
<path d="M153.542 40.5C158.493 40.5 162.159 36.8342 162.159 31.9151C162.159 26.9648 158.493 23.3303 153.542 23.3303C148.592 23.3303 144.958 26.9648 144.958 31.9151C144.958 36.8342 148.561 40.5 153.542 40.5ZM153.542 37.4608C150.535 37.4608 148.373 35.111 148.373 31.8838C148.373 28.6253 150.535 26.3068 153.542 26.3068C156.582 26.3068 158.712 28.6253 158.712 31.8838C158.712 35.111 156.582 37.4608 153.542 37.4608Z" fill="white" fill-opacity="0.5"/>
<path d="M179.674 26.5888C178.171 24.5209 175.915 23.3303 173.126 23.3303C168.176 23.3303 164.479 26.9648 164.479 31.9151C164.479 36.8342 168.082 40.5 173.126 40.5C176.071 40.5 178.453 39.0274 179.706 37.0222L177.701 34.9856C176.792 36.3956 175.288 37.4608 173.126 37.4608C170.087 37.4608 167.925 35.111 167.925 31.8838C167.925 28.6253 170.087 26.3068 173.126 26.3068C175.225 26.3068 176.667 27.2781 177.607 28.6567L179.674 26.5888Z" fill="white" fill-opacity="0.5"/>
<path d="M185.154 27.8734C185.154 26.8081 186.032 26.1188 187.285 26.1188C188.82 26.1188 189.885 27.0901 190.418 28.3433L192.831 26.9648C191.985 24.9595 190.23 23.3303 187.222 23.3303C184.214 23.3303 181.99 25.3982 181.99 27.9047C181.99 30.5679 183.525 31.6958 185.499 32.6044L187.347 33.4817C188.851 34.171 189.478 34.7663 189.478 35.6749C189.478 36.9595 188.538 37.6488 187.191 37.6488C185.28 37.6488 184.152 36.2389 183.87 34.8916L181.269 36.3329C181.833 38.5261 183.713 40.5 187.097 40.5C190.637 40.5 192.831 38.4948 192.831 35.7063C192.831 33.2311 191.327 32.0091 189.353 31.0692L187.285 30.0666C185.781 29.3773 185.154 28.8446 185.154 27.8734Z" fill="white" fill-opacity="0.5"/>
<defs>
<clipPath id="clip0_290_559">
<rect width="110.892" height="40" fill="white"/>
</clipPath>
</defs>
</svg>
